<?xml version="1.0" encoding="utf-8"?>
<!--

 Licensed to the Apache Software Foundation (ASF) under one
 or more contributor license agreements.  See the NOTICE file
 distributed with this work for additional information
 regarding copyright ownership.  The ASF licenses this file
 to you under the Apache License, Version 2.0 (the
 "License"); you may not use this file except in compliance
 with the License.  You may obtain a copy of the License at

   http://www.apache.org/licenses/LICENSE-2.0

 Unless required by applicable law or agreed to in writing,
 software distributed under the License is distributed on an
 "AS IS" BASIS, WITHOUT WARRANTIES OR CONDITIONS OF ANY
 KIND, either express or implied.  See the License for the
 specific language governing permissions and limitations
 under the License.

-->

<!-- Generator: Adobe Illustrator 15.0.0, SVG Export Plug-In . SVG Version: 6.00 Build 0)  -->
<!DOCTYPE svg PUBLIC "-//W3C//DTD SVG 1.1//EN" "http://www.w3.org/Graphics/SVG/1.1/DTD/svg11.dtd">
<svg version="1.1" id="Grayscale" xmlns="http://www.w3.org/2000/svg" xmlns:xlink="http://www.w3.org/1999/xlink" x="0px" y="0px"
	 width="440px" height="80px" viewBox="0 0 440 80" enable-background="new 0 0 440 80" display="none" xml:space="preserve">
<g display="inline">
	<path fill="#454545" d="M347.927,52.98c-0.063-0.432-0.116-0.856-0.162-1.272c-0.046-0.417-0.069-0.841-0.069-1.273
		c0-0.432,0.023-0.871,0.069-1.319c0.046-0.446,0.1-0.887,0.162-1.319c0.432-0.061,0.856-0.107,1.272-0.139
		c0.417-0.03,0.841-0.046,1.273-0.046c0.432,0,0.863,0.016,1.296,0.046c0.432,0.031,0.863,0.078,1.296,0.139
		c0.062,0.433,0.115,0.864,0.162,1.297c0.046,0.432,0.069,0.864,0.069,1.296c0,0.433-0.023,0.864-0.069,1.296
		c-0.047,0.433-0.101,0.864-0.162,1.296c-0.433,0.062-0.856,0.107-1.272,0.139c-0.417,0.03-0.842,0.047-1.273,0.047
		c-0.433,0-0.864-0.017-1.296-0.047C348.79,53.088,348.358,53.042,347.927,52.98z"/>
	<path fill="#454545" d="M359.776,29.235c0.339-0.062,0.671-0.107,0.995-0.139c0.324-0.03,0.655-0.047,0.995-0.047
		c0.339,0,0.655,0.017,0.949,0.047c0.292,0.031,0.608,0.077,0.948,0.139c0.093,0.463,0.186,1.088,0.278,1.875
		c0.092,0.786,0.139,1.442,0.139,1.967c0.308-0.524,0.701-1.049,1.18-1.573s1.026-0.995,1.644-1.412s1.326-0.756,2.129-1.019
		c0.803-0.262,1.682-0.394,2.639-0.394c2.715,0,4.721,0.78,6.018,2.338c1.296,1.559,1.943,3.865,1.943,6.92V52.98
		c-0.34,0.062-0.725,0.107-1.157,0.139c-0.432,0.03-0.817,0.047-1.157,0.047s-0.717-0.017-1.134-0.047
		c-0.416-0.031-0.795-0.077-1.134-0.139V39.188c0-2.191-0.34-3.803-1.019-4.837s-1.759-1.551-3.24-1.551
		c-0.864,0-1.682,0.154-2.453,0.463s-1.45,0.786-2.036,1.435c-0.587,0.648-1.058,1.489-1.412,2.522
		c-0.354,1.034-0.532,2.276-0.532,3.727V52.98c-0.34,0.062-0.718,0.107-1.134,0.139c-0.417,0.03-0.795,0.047-1.134,0.047
		c-0.34,0-0.726-0.017-1.157-0.047c-0.433-0.031-0.818-0.077-1.157-0.139V29.235z"/>
	<path fill="#454545" d="M389.954,42.242c0.062,2.592,0.732,4.489,2.014,5.693c1.28,1.203,3.171,1.805,5.67,1.805
		c2.19,0,4.273-0.386,6.249-1.157c0.246,0.463,0.447,1.026,0.602,1.689c0.154,0.664,0.247,1.319,0.277,1.968
		c-1.018,0.433-2.137,0.756-3.355,0.972c-1.22,0.216-2.568,0.324-4.05,0.324c-2.16,0-4.012-0.301-5.555-0.902
		c-1.543-0.603-2.816-1.45-3.818-2.546c-1.003-1.096-1.736-2.392-2.199-3.889c-0.463-1.496-0.694-3.14-0.694-4.93
		c0-1.759,0.224-3.401,0.672-4.929c0.446-1.528,1.134-2.854,2.06-3.981c0.926-1.126,2.09-2.021,3.494-2.685
		c1.404-0.663,3.063-0.995,4.977-0.995c1.635,0,3.069,0.278,4.305,0.833c1.233,0.556,2.268,1.319,3.101,2.292
		c0.833,0.972,1.466,2.129,1.898,3.471c0.432,1.343,0.647,2.801,0.647,4.375c0,0.432-0.016,0.887-0.046,1.365
		c-0.031,0.479-0.063,0.887-0.093,1.227H389.954z M401.711,38.816c0-0.863-0.115-1.689-0.347-2.476
		c-0.231-0.787-0.571-1.474-1.019-2.061c-0.447-0.585-1.019-1.057-1.713-1.411s-1.52-0.532-2.477-0.532
		c-1.882,0-3.325,0.571-4.327,1.712c-1.003,1.143-1.613,2.731-1.828,4.768H401.711z"/>
	<path fill="#454545" d="M413.144,32.892h-3.61l-0.185-0.647l7.961-8.887h0.37v5.878h6.018c0.123,0.525,0.186,1.111,0.186,1.759
		c0,0.34-0.017,0.664-0.047,0.973c-0.031,0.309-0.077,0.617-0.139,0.925h-6.018v10.832c0,1.296,0.054,2.33,0.162,3.101
		c0.108,0.771,0.293,1.365,0.556,1.782c0.262,0.417,0.617,0.694,1.064,0.833s1.011,0.208,1.689,0.208
		c0.524,0,1.019-0.038,1.481-0.115s0.879-0.162,1.25-0.255c0.215,0.618,0.347,1.25,0.393,1.897c0.047,0.648,0.07,1.22,0.07,1.713
		c-0.618,0.154-1.266,0.27-1.944,0.348c-0.68,0.076-1.404,0.115-2.176,0.115c-2.222,0-3.957-0.539-5.207-1.62
		c-1.25-1.079-1.875-2.869-1.875-5.369V32.892z"/>
</g>
<g display="inline">
	<path fill="#454545" d="M129.313,7.903c1.131-0.167,2.158-0.293,3.08-0.377s1.739-0.126,2.452-0.126
		c0.754,0,1.604,0.042,2.546,0.126c0.943,0.084,1.959,0.21,3.05,0.377V43.11h14.522c0.209,1.048,0.346,1.959,0.408,2.734
		c0.063,0.776,0.095,1.478,0.095,2.106c0,0.713-0.031,1.457-0.095,2.231c-0.063,0.776-0.199,1.708-0.408,2.798h-25.65V7.903z"/>
	<path fill="#454545" d="M175.963,53.672c-3.395,0-6.214-0.462-8.456-1.383c-2.242-0.922-4.014-2.253-5.313-3.992
		s-2.211-3.845-2.734-6.318c-0.524-2.473-0.786-5.26-0.786-8.361V7.903c1.215-0.167,2.264-0.283,3.144-0.346
		s1.718-0.095,2.515-0.095c0.712,0,1.498,0.032,2.357,0.095s1.896,0.179,3.112,0.346v24.394c0,2.096,0.084,3.877,0.252,5.344
		c0.167,1.468,0.471,2.662,0.911,3.583c0.44,0.923,1.058,1.583,1.854,1.98c0.796,0.399,1.844,0.598,3.144,0.598
		c1.299,0,2.357-0.198,3.175-0.598c0.817-0.397,1.446-1.058,1.887-1.98c0.439-0.921,0.732-2.115,0.88-3.583
		c0.146-1.467,0.22-3.248,0.22-5.344V7.903c1.258-0.167,2.315-0.283,3.175-0.346c0.858-0.063,1.645-0.095,2.357-0.095
		c0.755,0,1.572,0.032,2.452,0.095s1.928,0.179,3.144,0.346v25.714c0,3.102-0.263,5.889-0.786,8.361
		c-0.524,2.474-1.436,4.579-2.734,6.318c-1.3,1.739-3.071,3.07-5.313,3.992C182.176,53.21,179.358,53.672,175.963,53.672z"/>
	<path fill="#454545" d="M211.105,30.474c0,8.886,3.73,13.328,11.19,13.328c1.342,0,2.609-0.126,3.804-0.377
		c1.195-0.252,2.65-0.67,4.37-1.258c1.383,3.018,2.304,6.12,2.766,9.305c-1.216,0.462-2.348,0.839-3.395,1.132
		c-1.048,0.293-2.055,0.513-3.018,0.66c-0.965,0.146-1.918,0.251-2.861,0.314c-0.942,0.063-1.917,0.094-2.923,0.094
		c-3.563,0-6.695-0.576-9.399-1.729c-2.703-1.152-4.966-2.756-6.789-4.81c-1.823-2.053-3.197-4.505-4.118-7.355
		c-0.923-2.851-1.384-5.951-1.384-9.305c0-3.353,0.481-6.465,1.446-9.336c0.964-2.871,2.357-5.354,4.181-7.45
		s4.076-3.73,6.759-4.904c2.682-1.173,5.721-1.76,9.116-1.76c2.012,0,3.918,0.147,5.721,0.439c1.802,0.294,3.813,0.881,6.035,1.761
		c-0.084,1.719-0.398,3.385-0.942,4.998c-0.545,1.614-1.111,3.028-1.697,4.243c-0.839-0.292-1.604-0.544-2.295-0.754
		c-0.691-0.209-1.352-0.377-1.98-0.503s-1.258-0.22-1.886-0.283c-0.629-0.063-1.3-0.094-2.013-0.094
		c-3.395,0-6.025,1.143-7.89,3.426C212.038,22.542,211.105,25.946,211.105,30.474z"/>
	<path fill="#454545" d="M262.658,29.404c0,1.468-0.188,3.103-0.565,4.904h-12.134v8.927h15.779
		c0.378,1.761,0.566,3.354,0.566,4.778c0,1.551-0.188,3.206-0.566,4.967h-26.907V7.777h26.53c0.167,0.923,0.293,1.782,0.377,2.578
		c0.084,0.797,0.126,1.551,0.126,2.263c0,1.384-0.168,3.04-0.503,4.967h-15.402v6.916h12.134
		C262.47,26.346,262.658,27.98,262.658,29.404z"/>
	<path fill="#454545" d="M271.962,7.903c0.921-0.167,1.76-0.293,2.515-0.377c0.754-0.084,1.487-0.126,2.2-0.126
		c0.755,0,1.54,0.053,2.357,0.157c0.817,0.105,1.519,0.22,2.106,0.346l14.586,24.645V7.903c1.089-0.167,2.074-0.293,2.954-0.377
		c0.881-0.084,1.676-0.126,2.39-0.126c0.712,0,1.467,0.042,2.263,0.126s1.635,0.21,2.515,0.377l-0.063,44.889
		c-0.419,0.126-1.027,0.251-1.823,0.377c-0.797,0.126-1.656,0.188-2.577,0.188c-1.049,0-1.991-0.073-2.829-0.22
		c-0.839-0.147-1.446-0.262-1.823-0.346l-14.648-24.52v24.52c-1.846,0.377-3.521,0.565-5.03,0.565s-3.206-0.188-5.092-0.565V7.903z"
		/>
	<path fill="#454545" d="M337.22,29.404c0,1.468-0.188,3.103-0.565,4.904h-12.134v8.927H340.3c0.378,1.761,0.566,3.354,0.566,4.778
		c0,1.551-0.188,3.206-0.566,4.967h-26.907V7.777h26.53c0.167,0.923,0.293,1.782,0.377,2.578c0.084,0.797,0.126,1.551,0.126,2.263
		c0,1.384-0.168,3.04-0.503,4.967h-15.402v6.916h12.134C337.031,26.346,337.22,27.98,337.22,29.404z"/>
</g>
<g display="inline">
	<path fill="#454545" d="M148.06,71.438l1.113-0.667c0.783,1.441,1.688,2.163,2.715,2.163c0.439,0,0.852-0.103,1.237-0.308
		c0.386-0.204,0.68-0.479,0.882-0.823c0.201-0.344,0.303-0.709,0.303-1.095c0-0.439-0.148-0.87-0.445-1.291
		c-0.41-0.582-1.157-1.282-2.243-2.102c-1.093-0.824-1.772-1.421-2.039-1.789c-0.463-0.617-0.694-1.285-0.694-2.003
		c0-0.569,0.137-1.089,0.409-1.558c0.273-0.469,0.657-0.839,1.153-1.108c0.495-0.271,1.034-0.405,1.615-0.405
		c0.617,0,1.194,0.153,1.731,0.459s1.105,0.867,1.705,1.687l-1.068,0.811c-0.492-0.653-0.912-1.083-1.26-1.291
		c-0.347-0.208-0.726-0.312-1.135-0.312c-0.528,0-0.96,0.16-1.295,0.48c-0.336,0.32-0.503,0.715-0.503,1.184
		c0,0.285,0.059,0.562,0.178,0.828c0.118,0.268,0.335,0.558,0.649,0.873c0.173,0.166,0.736,0.602,1.691,1.309
		c1.134,0.836,1.911,1.581,2.333,2.234c0.421,0.652,0.632,1.309,0.632,1.967c0,0.95-0.36,1.775-1.082,2.476
		c-0.721,0.7-1.598,1.05-2.63,1.05c-0.796,0-1.517-0.212-2.164-0.637C149.202,73.146,148.605,72.435,148.06,71.438z"/>
	<path fill="#454545" d="M160.325,60.781h7.505v1.282h-6.196v4.104h6.143v1.281h-6.143v5.146h6.143v1.282h-7.451V60.781z"/>
	<path fill="#454545" d="M177.266,60.781l6.106,13.096h-1.413l-2.06-4.309h-5.642l-2.04,4.309h-1.46l6.187-13.096H177.266z
		 M177.1,63.563l-2.244,4.74h4.478L177.1,63.563z"/>
	<path fill="#454545" d="M187.296,60.781h2.608c1.454,0,2.438,0.06,2.955,0.179c0.777,0.179,1.41,0.56,1.896,1.146
		c0.486,0.585,0.729,1.306,0.729,2.161c0,0.714-0.167,1.34-0.503,1.881c-0.335,0.541-0.814,0.949-1.438,1.226
		s-1.483,0.418-2.581,0.424l4.709,6.08h-1.619l-4.71-6.08h-0.739v6.08h-1.309V60.781z M188.604,62.063v4.451l2.256,0.018
		c0.874,0,1.521-0.083,1.939-0.249s0.746-0.432,0.98-0.797c0.235-0.364,0.353-0.772,0.353-1.224c0-0.439-0.119-0.839-0.356-1.197
		c-0.238-0.359-0.55-0.616-0.937-0.771s-1.028-0.231-1.926-0.231H188.604z"/>
	<path fill="#454545" d="M212.311,63.212l-1.033,0.792c-0.569-0.741-1.254-1.304-2.052-1.687s-1.675-0.574-2.631-0.574
		c-1.044,0-2.012,0.251-2.902,0.752c-0.89,0.502-1.58,1.175-2.069,2.021c-0.489,0.847-0.734,1.798-0.734,2.854
		c0,1.597,0.547,2.929,1.643,3.997c1.095,1.068,2.476,1.603,4.144,1.603c1.834,0,3.368-0.718,4.603-2.154l1.033,0.783
		c-0.653,0.831-1.468,1.474-2.444,1.928c-0.976,0.454-2.066,0.681-3.271,0.681c-2.291,0-4.098-0.763-5.421-2.288
		c-1.11-1.287-1.665-2.843-1.665-4.664c0-1.917,0.672-3.53,2.017-4.839c1.344-1.309,3.028-1.963,5.052-1.963
		c1.223,0,2.326,0.242,3.312,0.726S211.681,62.34,212.311,63.212z"/>
	<path fill="#454545" d="M216.742,60.781h1.309v5.493h6.668v-5.493h1.309v13.096h-1.309v-6.32h-6.668v6.32h-1.309V60.781z"/>
	<path fill="#454545" d="M237.917,60.781h7.505v1.282h-6.196v4.104h6.143v1.281h-6.143v5.146h6.143v1.282h-7.451V60.781z"/>
	<path fill="#454545" d="M249.515,73.877V60.781h0.285l8.715,10.038V60.781h1.291v13.096h-0.294l-8.644-9.916v9.916H249.515z"/>
	<path fill="#454545" d="M277.448,62.98l-1.015,0.962c-0.729-0.719-1.529-1.263-2.399-1.634c-0.869-0.371-1.717-0.557-2.541-0.557
		c-1.027,0-2.005,0.252-2.934,0.757c-0.929,0.504-1.648,1.188-2.159,2.052c-0.51,0.863-0.766,1.776-0.766,2.737
		c0,0.985,0.265,1.922,0.793,2.809c0.528,0.888,1.258,1.585,2.189,2.093c0.932,0.507,1.953,0.761,3.063,0.761
		c1.348,0,2.487-0.38,3.419-1.14s1.483-1.745,1.655-2.955h-4.175v-1.265h5.645c-0.013,2.024-0.613,3.631-1.803,4.821
		c-1.19,1.189-2.782,1.784-4.776,1.784c-2.422,0-4.339-0.824-5.751-2.475c-1.086-1.27-1.629-2.739-1.629-4.406
		c0-1.241,0.312-2.396,0.935-3.464c0.623-1.067,1.478-1.903,2.563-2.506c1.086-0.602,2.314-0.903,3.686-0.903
		c1.11,0,2.154,0.2,3.134,0.601C275.562,61.454,276.517,62.097,277.448,62.98z"/>
	<path fill="#454545" d="M282.352,60.781h1.309v13.096h-1.309V60.781z"/>
	<path fill="#454545" d="M288.493,73.877V60.781h0.285l8.715,10.038V60.781h1.291v13.096h-0.294l-8.644-9.916v9.916H288.493z"/>
	<path fill="#454545" d="M303.803,60.781h7.505v1.282h-6.196v4.104h6.143v1.281h-6.143v5.146h6.143v1.282h-7.451V60.781z"/>
	<path fill="#454545" d="M322.264,60.781h1.309v11.832h5.038v1.264h-6.347V60.781z"/>
	<path fill="#454545" d="M332.32,60.781h1.309v13.096h-1.309V60.781z"/>
	<path fill="#454545" d="M338.488,60.781h2.582c1.038,0,1.837,0.124,2.395,0.37s0.999,0.624,1.322,1.135s0.485,1.077,0.485,1.7
		c0,0.582-0.142,1.111-0.426,1.589c-0.283,0.479-0.7,0.865-1.249,1.162c0.681,0.231,1.204,0.503,1.571,0.814
		c0.366,0.312,0.652,0.688,0.856,1.131s0.306,0.921,0.306,1.438c0,1.051-0.384,1.939-1.152,2.666
		c-0.769,0.728-1.8,1.091-3.094,1.091h-3.597V60.781z M339.771,62.063v4.193h0.749c0.91,0,1.579-0.085,2.008-0.254
		c0.428-0.169,0.767-0.437,1.017-0.802c0.25-0.364,0.375-0.77,0.375-1.215c0-0.6-0.21-1.069-0.629-1.411
		c-0.419-0.341-1.087-0.512-2.003-0.512H339.771z M339.771,67.574v5.021h1.623c0.957,0,1.658-0.093,2.104-0.28
		c0.446-0.187,0.804-0.479,1.074-0.877s0.406-0.828,0.406-1.291c0-0.581-0.19-1.089-0.57-1.521c-0.381-0.434-0.903-0.73-1.568-0.891
		c-0.446-0.106-1.223-0.16-2.329-0.16H339.771z"/>
	<path fill="#454545" d="M350.816,60.781h2.608c1.454,0,2.438,0.06,2.955,0.179c0.777,0.179,1.41,0.56,1.896,1.146
		c0.486,0.585,0.729,1.306,0.729,2.161c0,0.714-0.167,1.34-0.503,1.881c-0.335,0.541-0.814,0.949-1.438,1.226
		s-1.483,0.418-2.581,0.424l4.709,6.08h-1.619l-4.71-6.08h-0.739v6.08h-1.309V60.781z M352.125,62.063v4.451l2.256,0.018
		c0.874,0,1.521-0.083,1.939-0.249s0.746-0.432,0.98-0.797c0.235-0.364,0.353-0.772,0.353-1.224c0-0.439-0.119-0.839-0.356-1.197
		c-0.238-0.359-0.55-0.616-0.937-0.771s-1.028-0.231-1.926-0.231H352.125z"/>
	<path fill="#454545" d="M368.985,60.781l6.106,13.096h-1.413l-2.06-4.309h-5.642l-2.04,4.309h-1.46l6.187-13.096H368.985z
		 M368.819,63.563l-2.244,4.74h4.478L368.819,63.563z"/>
	<path fill="#454545" d="M379.016,60.781h2.608c1.454,0,2.438,0.06,2.955,0.179c0.777,0.179,1.41,0.56,1.896,1.146
		c0.486,0.585,0.729,1.306,0.729,2.161c0,0.714-0.167,1.34-0.503,1.881c-0.335,0.541-0.814,0.949-1.438,1.226
		s-1.483,0.418-2.581,0.424l4.709,6.08h-1.619l-4.71-6.08h-0.739v6.08h-1.309V60.781z M380.324,62.063v4.451l2.256,0.018
		c0.874,0,1.521-0.083,1.939-0.249s0.746-0.432,0.98-0.797c0.235-0.364,0.353-0.772,0.353-1.224c0-0.439-0.119-0.839-0.356-1.197
		c-0.238-0.359-0.55-0.616-0.937-0.771s-1.028-0.231-1.926-0.231H380.324z"/>
	<path fill="#454545" d="M390.8,60.781h1.506l3.351,5.401l3.299-5.401h1.513l-4.148,6.837v6.259h-1.291v-6.259L390.8,60.781z"/>
</g>
<polygon display="inline" fill="#454545" points="102.088,33.602 102.088,33.602 102.088,33.602 "/>
<g display="inline">
	<path fill="#454545" d="M429.885,23.81v4.638h-0.722V23.81h-1.682v-0.65h4.161v0.65H429.885z"/>
	<path fill="#454545" d="M436.969,28.447l-0.628-3.396l-1.155,3.469h-0.181l-1.188-3.469l-0.613,3.396h-0.686l0.989-5.288h0.328
		l1.26,3.858l1.162-3.858h0.325l1.071,5.288H436.969z"/>
</g>
<path display="inline" fill="#454545" d="M12.543,28.71c10.422-13.303,30.352-13.869,44.994-8.13
	c7.021,1.816,10.947,5.806,20.154,6.474c7.519,0.545,12.931-4.87,9.955-9.338c-9.261-13.904-34.021,11.262-37.462,15.51
	c-6.358,7.887-9.467,18.986-21.334,20.536C16.056,55.433,5.442,41.089,17.595,31.904c16.735-12.608,33.001,5.291,51.931,10.523
	c10.511,2.903,27.66,3.712,32.292-11.092c11.733,14.346-8.135,34.643-29.003,27.11c-13.773-4.975-33.137-23.473-45.238-21.991
	c-5.18,0.636-6.658,9.087-0.937,9.206c5.479,1.682,11.943-6.838,15.73-9.943c9.093-7.59,14.618-18.118,24.95-24.695
	c10.731-6.828,31.151-5.04,30.852,8.341c-0.428,19.032-20.107,18.284-31.823,13.176C48.77,24.873,29.943,14.239,12.543,28.71
	C13.014,28.113,12.543,28.71,12.543,28.71z"/>
</svg>
