<?xml version="1.0" encoding="utf-8"?>
<!--

 Licensed to the Apache Software Foundation (ASF) under one
 or more contributor license agreements.  See the NOTICE file
 distributed with this work for additional information
 regarding copyright ownership.  The ASF licenses this file
 to you under the Apache License, Version 2.0 (the
 "License"); you may not use this file except in compliance
 with the License.  You may obtain a copy of the License at

   http://www.apache.org/licenses/LICENSE-2.0

 Unless required by applicable law or agreed to in writing,
 software distributed under the License is distributed on an
 "AS IS" BASIS, WITHOUT WARRANTIES OR CONDITIONS OF ANY
 KIND, either express or implied.  See the License for the
 specific language governing permissions and limitations
 under the License.

-->

<!-- Generator: Adobe Illustrator 15.0.0, SVG Export Plug-In . SVG Version: 6.00 Build 0)  -->
<!DOCTYPE svg PUBLIC "-//W3C//DTD SVG 1.1//EN" "http://www.w3.org/Graphics/SVG/1.1/DTD/svg11.dtd">
<svg version="1.1" id="Reverse_Color" xmlns="http://www.w3.org/2000/svg" xmlns:xlink="http://www.w3.org/1999/xlink" x="0px"
	 y="0px" width="440px" height="80px" viewBox="0 0 440 80" enable-background="new 0 0 440 80" xml:space="preserve">
<g>
	<path fill="#0664A8" d="M348.927,53.062c-0.063-0.432-0.116-0.856-0.162-1.272c-0.046-0.417-0.069-0.841-0.069-1.273
		c0-0.432,0.023-0.871,0.069-1.319c0.046-0.446,0.1-0.887,0.162-1.319c0.432-0.061,0.856-0.107,1.272-0.139
		c0.417-0.03,0.841-0.046,1.273-0.046c0.432,0,0.863,0.016,1.296,0.046c0.432,0.031,0.863,0.078,1.296,0.139
		c0.062,0.433,0.115,0.864,0.162,1.297c0.046,0.432,0.069,0.864,0.069,1.296c0,0.433-0.023,0.864-0.069,1.296
		c-0.047,0.433-0.101,0.864-0.162,1.296c-0.433,0.062-0.856,0.107-1.272,0.139c-0.417,0.03-0.842,0.047-1.273,0.047
		c-0.433,0-0.864-0.017-1.296-0.047C349.79,53.169,349.358,53.123,348.927,53.062z"/>
	<path fill="#0664A8" d="M360.776,29.316c0.339-0.062,0.671-0.107,0.995-0.139c0.324-0.03,0.655-0.046,0.995-0.046
		c0.339,0,0.655,0.016,0.949,0.046c0.292,0.031,0.608,0.077,0.948,0.139c0.093,0.463,0.186,1.088,0.278,1.875
		c0.092,0.786,0.139,1.442,0.139,1.967c0.308-0.524,0.701-1.049,1.18-1.573s1.026-0.995,1.644-1.412s1.326-0.756,2.129-1.019
		c0.803-0.262,1.682-0.394,2.639-0.394c2.715,0,4.721,0.78,6.018,2.338c1.296,1.559,1.943,3.865,1.943,6.92v15.043
		c-0.34,0.062-0.725,0.107-1.157,0.139c-0.432,0.03-0.817,0.047-1.157,0.047s-0.717-0.017-1.134-0.047
		c-0.416-0.031-0.795-0.077-1.134-0.139V39.269c0-2.191-0.34-3.803-1.019-4.837s-1.759-1.551-3.24-1.551
		c-0.864,0-1.682,0.154-2.453,0.463s-1.45,0.786-2.036,1.435c-0.587,0.648-1.058,1.489-1.412,2.522
		c-0.354,1.034-0.532,2.276-0.532,3.727v12.034c-0.34,0.062-0.718,0.107-1.134,0.139c-0.417,0.03-0.795,0.047-1.134,0.047
		c-0.34,0-0.726-0.017-1.157-0.047c-0.433-0.031-0.818-0.077-1.157-0.139V29.316z"/>
	<path fill="#0664A8" d="M390.954,42.323c0.062,2.592,0.732,4.489,2.014,5.693c1.28,1.203,3.171,1.805,5.67,1.805
		c2.19,0,4.273-0.386,6.249-1.157c0.246,0.463,0.447,1.026,0.602,1.689c0.154,0.664,0.247,1.319,0.277,1.968
		c-1.018,0.433-2.137,0.756-3.355,0.972c-1.22,0.216-2.568,0.324-4.05,0.324c-2.16,0-4.012-0.301-5.555-0.902
		c-1.543-0.603-2.816-1.45-3.818-2.546c-1.003-1.096-1.736-2.392-2.199-3.889c-0.463-1.496-0.694-3.14-0.694-4.93
		c0-1.759,0.224-3.401,0.672-4.929c0.446-1.528,1.134-2.854,2.06-3.981c0.926-1.126,2.09-2.021,3.494-2.685
		c1.404-0.663,3.063-0.995,4.977-0.995c1.635,0,3.069,0.278,4.305,0.833c1.233,0.556,2.268,1.319,3.101,2.292
		c0.833,0.972,1.466,2.129,1.898,3.471c0.432,1.343,0.647,2.801,0.647,4.375c0,0.432-0.016,0.887-0.046,1.365
		c-0.031,0.479-0.063,0.887-0.093,1.227H390.954z M402.711,38.897c0-0.863-0.115-1.689-0.347-2.476
		c-0.231-0.787-0.571-1.474-1.019-2.061c-0.447-0.585-1.019-1.057-1.713-1.411s-1.52-0.532-2.477-0.532
		c-1.882,0-3.325,0.571-4.327,1.712c-1.003,1.143-1.613,2.731-1.828,4.768H402.711z"/>
	<path fill="#0664A8" d="M414.144,32.973h-3.61l-0.185-0.647l7.961-8.887h0.37v5.878h6.018c0.123,0.525,0.186,1.111,0.186,1.759
		c0,0.34-0.017,0.664-0.047,0.973c-0.031,0.309-0.077,0.617-0.139,0.925h-6.018v10.832c0,1.296,0.054,2.33,0.162,3.101
		c0.108,0.771,0.293,1.365,0.556,1.782c0.262,0.417,0.617,0.694,1.064,0.833s1.011,0.208,1.689,0.208
		c0.524,0,1.019-0.038,1.481-0.115s0.879-0.162,1.25-0.255c0.215,0.618,0.347,1.25,0.393,1.897c0.047,0.648,0.07,1.22,0.07,1.713
		c-0.618,0.154-1.266,0.27-1.944,0.348c-0.68,0.076-1.404,0.115-2.176,0.115c-2.222,0-3.957-0.539-5.207-1.62
		c-1.25-1.079-1.875-2.869-1.875-5.369V32.973z"/>
</g>
<g>
	<path fill="#FFFFFF" d="M130.313,7.984c1.131-0.167,2.158-0.293,3.08-0.377s1.739-0.126,2.452-0.126
		c0.754,0,1.604,0.042,2.546,0.126c0.943,0.084,1.959,0.21,3.05,0.377v35.207h14.522c0.209,1.048,0.346,1.959,0.408,2.734
		c0.063,0.776,0.095,1.478,0.095,2.106c0,0.713-0.031,1.457-0.095,2.231c-0.063,0.776-0.199,1.708-0.408,2.798h-25.65V7.984z"/>
	<path fill="#FFFFFF" d="M176.963,53.753c-3.395,0-6.214-0.462-8.456-1.383c-2.242-0.922-4.014-2.253-5.313-3.992
		s-2.211-3.845-2.734-6.318c-0.524-2.473-0.786-5.26-0.786-8.361V7.984c1.215-0.167,2.264-0.283,3.144-0.346
		s1.718-0.095,2.515-0.095c0.712,0,1.498,0.032,2.357,0.095s1.896,0.179,3.112,0.346v24.394c0,2.096,0.084,3.877,0.252,5.344
		c0.167,1.468,0.471,2.662,0.911,3.583c0.44,0.923,1.058,1.583,1.854,1.98c0.796,0.399,1.844,0.598,3.144,0.598
		c1.299,0,2.357-0.198,3.175-0.598c0.817-0.397,1.446-1.058,1.887-1.98c0.439-0.921,0.732-2.115,0.88-3.583
		c0.146-1.467,0.22-3.248,0.22-5.344V7.984c1.258-0.167,2.315-0.283,3.175-0.346c0.858-0.063,1.645-0.095,2.357-0.095
		c0.755,0,1.572,0.032,2.452,0.095s1.928,0.179,3.144,0.346v25.714c0,3.102-0.263,5.889-0.786,8.361
		c-0.524,2.474-1.436,4.579-2.734,6.318c-1.3,1.739-3.071,3.07-5.313,3.992C183.176,53.291,180.358,53.753,176.963,53.753z"/>
	<path fill="#FFFFFF" d="M212.105,30.555c0,8.886,3.73,13.328,11.19,13.328c1.342,0,2.609-0.126,3.804-0.377
		c1.195-0.252,2.65-0.67,4.37-1.258c1.383,3.018,2.304,6.12,2.766,9.305c-1.216,0.462-2.348,0.839-3.395,1.132
		c-1.048,0.293-2.055,0.513-3.018,0.66c-0.965,0.146-1.918,0.251-2.861,0.314c-0.942,0.063-1.917,0.094-2.923,0.094
		c-3.563,0-6.695-0.576-9.399-1.729c-2.703-1.152-4.966-2.756-6.789-4.81c-1.823-2.053-3.197-4.505-4.118-7.355
		c-0.923-2.851-1.384-5.951-1.384-9.305c0-3.353,0.481-6.465,1.446-9.336c0.964-2.871,2.357-5.354,4.181-7.45
		s4.076-3.73,6.759-4.904c2.682-1.173,5.721-1.76,9.116-1.76c2.012,0,3.918,0.147,5.721,0.439c1.802,0.294,3.813,0.881,6.035,1.761
		c-0.084,1.719-0.398,3.385-0.942,4.998c-0.545,1.614-1.111,3.028-1.697,4.243c-0.839-0.292-1.604-0.544-2.295-0.754
		c-0.691-0.209-1.352-0.377-1.98-0.503s-1.258-0.22-1.886-0.283c-0.629-0.063-1.3-0.094-2.013-0.094
		c-3.395,0-6.025,1.143-7.89,3.426C213.038,22.623,212.105,26.027,212.105,30.555z"/>
	<path fill="#FFFFFF" d="M263.658,29.485c0,1.468-0.188,3.103-0.565,4.904h-12.134v8.927h15.779
		c0.378,1.761,0.566,3.354,0.566,4.778c0,1.551-0.188,3.206-0.566,4.967h-26.907V7.858h26.53c0.167,0.923,0.293,1.782,0.377,2.578
		c0.084,0.797,0.126,1.551,0.126,2.263c0,1.384-0.168,3.04-0.503,4.967h-15.402v6.916h12.134
		C263.47,26.427,263.658,28.062,263.658,29.485z"/>
	<path fill="#FFFFFF" d="M272.962,7.984c0.921-0.167,1.76-0.293,2.515-0.377c0.754-0.084,1.487-0.126,2.2-0.126
		c0.755,0,1.54,0.053,2.357,0.157c0.817,0.105,1.519,0.22,2.106,0.346l14.586,24.645V7.984c1.089-0.167,2.074-0.293,2.954-0.377
		c0.881-0.084,1.676-0.126,2.39-0.126c0.712,0,1.467,0.042,2.263,0.126s1.635,0.21,2.515,0.377l-0.063,44.889
		c-0.419,0.126-1.027,0.251-1.823,0.377c-0.797,0.126-1.656,0.188-2.577,0.188c-1.049,0-1.991-0.073-2.829-0.22
		c-0.839-0.147-1.446-0.262-1.823-0.346l-14.648-24.52v24.52c-1.846,0.377-3.521,0.565-5.03,0.565s-3.206-0.188-5.092-0.565V7.984z"
		/>
	<path fill="#FFFFFF" d="M338.22,29.485c0,1.468-0.188,3.103-0.565,4.904h-12.134v8.927H341.3c0.378,1.761,0.566,3.354,0.566,4.778
		c0,1.551-0.188,3.206-0.566,4.967h-26.907V7.858h26.53c0.167,0.923,0.293,1.782,0.377,2.578c0.084,0.797,0.126,1.551,0.126,2.263
		c0,1.384-0.168,3.04-0.503,4.967h-15.402v6.916h12.134C338.031,26.427,338.22,28.062,338.22,29.485z"/>
</g>
<g opacity="0.6">
	<g>
		<path fill="#FFFFFF" d="M149.061,71.519l1.113-0.667c0.783,1.441,1.688,2.163,2.715,2.163c0.439,0,0.852-0.103,1.237-0.308
			c0.386-0.204,0.68-0.479,0.882-0.823c0.201-0.344,0.303-0.709,0.303-1.095c0-0.439-0.148-0.87-0.445-1.291
			c-0.41-0.582-1.157-1.282-2.243-2.102c-1.093-0.824-1.772-1.421-2.039-1.789c-0.463-0.617-0.694-1.285-0.694-2.003
			c0-0.569,0.137-1.089,0.409-1.558c0.273-0.469,0.657-0.839,1.153-1.108c0.495-0.271,1.034-0.405,1.615-0.405
			c0.617,0,1.194,0.153,1.731,0.459s1.105,0.867,1.705,1.687l-1.068,0.811c-0.492-0.653-0.912-1.083-1.26-1.291
			c-0.347-0.208-0.726-0.312-1.135-0.312c-0.528,0-0.96,0.16-1.295,0.48c-0.336,0.32-0.503,0.715-0.503,1.184
			c0,0.285,0.059,0.562,0.178,0.828c0.118,0.268,0.335,0.558,0.649,0.873c0.173,0.166,0.736,0.602,1.691,1.309
			c1.134,0.836,1.911,1.581,2.333,2.234c0.421,0.652,0.632,1.309,0.632,1.967c0,0.95-0.36,1.775-1.082,2.476
			c-0.721,0.7-1.598,1.05-2.63,1.05c-0.796,0-1.517-0.212-2.164-0.637C150.203,73.227,149.606,72.516,149.061,71.519z"/>
		<path fill="#FFFFFF" d="M161.326,60.862h7.505v1.282h-6.196v4.104h6.143v1.281h-6.143v5.146h6.143v1.282h-7.451V60.862z"/>
		<path fill="#FFFFFF" d="M178.267,60.862l6.106,13.096h-1.413l-2.06-4.309h-5.642l-2.04,4.309h-1.46l6.187-13.096H178.267z
			 M178.101,63.645l-2.244,4.74h4.478L178.101,63.645z"/>
		<path fill="#FFFFFF" d="M188.297,60.862h2.608c1.454,0,2.438,0.06,2.955,0.179c0.777,0.179,1.41,0.56,1.896,1.146
			c0.486,0.585,0.729,1.306,0.729,2.161c0,0.714-0.167,1.34-0.503,1.881c-0.335,0.541-0.814,0.949-1.438,1.226
			s-1.483,0.418-2.581,0.424l4.709,6.08h-1.619l-4.71-6.08h-0.739v6.08h-1.309V60.862z M189.605,62.145v4.451l2.256,0.018
			c0.874,0,1.521-0.083,1.939-0.249s0.746-0.432,0.98-0.797c0.235-0.364,0.353-0.772,0.353-1.224c0-0.439-0.119-0.839-0.356-1.197
			c-0.238-0.359-0.55-0.616-0.937-0.771s-1.028-0.231-1.926-0.231H189.605z"/>
		<path fill="#FFFFFF" d="M213.312,63.293l-1.033,0.792c-0.569-0.741-1.254-1.304-2.052-1.687s-1.675-0.574-2.631-0.574
			c-1.044,0-2.012,0.251-2.902,0.752c-0.89,0.502-1.58,1.175-2.069,2.021c-0.489,0.847-0.734,1.798-0.734,2.854
			c0,1.597,0.547,2.929,1.643,3.997c1.095,1.068,2.476,1.603,4.144,1.603c1.834,0,3.368-0.718,4.603-2.154l1.033,0.783
			c-0.653,0.831-1.468,1.474-2.444,1.928c-0.976,0.454-2.066,0.681-3.271,0.681c-2.291,0-4.098-0.763-5.421-2.288
			c-1.11-1.287-1.665-2.843-1.665-4.664c0-1.917,0.672-3.53,2.017-4.839c1.344-1.309,3.028-1.963,5.052-1.963
			c1.223,0,2.326,0.242,3.312,0.726S212.682,62.421,213.312,63.293z"/>
		<path fill="#FFFFFF" d="M217.743,60.862h1.309v5.493h6.667v-5.493h1.31v13.096h-1.31v-6.32h-6.667v6.32h-1.309V60.862z"/>
		<path fill="#FFFFFF" d="M238.918,60.862h7.505v1.282h-6.196v4.104h6.143v1.281h-6.143v5.146h6.143v1.282h-7.451V60.862z"/>
		<path fill="#FFFFFF" d="M250.516,73.958V60.862h0.285l8.715,10.038V60.862h1.291v13.096h-0.294l-8.644-9.916v9.916H250.516z"/>
		<path fill="#FFFFFF" d="M278.449,63.062l-1.015,0.962c-0.729-0.719-1.529-1.263-2.399-1.634c-0.869-0.371-1.717-0.557-2.541-0.557
			c-1.027,0-2.005,0.252-2.934,0.757c-0.929,0.504-1.648,1.188-2.159,2.052c-0.51,0.863-0.766,1.776-0.766,2.737
			c0,0.985,0.265,1.922,0.793,2.809c0.528,0.888,1.258,1.585,2.189,2.093c0.932,0.507,1.953,0.761,3.063,0.761
			c1.348,0,2.487-0.38,3.419-1.14s1.483-1.745,1.655-2.955h-4.175v-1.265h5.645c-0.013,2.024-0.613,3.631-1.803,4.821
			c-1.19,1.189-2.782,1.784-4.776,1.784c-2.422,0-4.339-0.824-5.751-2.475c-1.086-1.27-1.629-2.739-1.629-4.406
			c0-1.241,0.312-2.396,0.935-3.464c0.623-1.067,1.478-1.903,2.563-2.506c1.086-0.602,2.314-0.903,3.686-0.903
			c1.11,0,2.154,0.2,3.134,0.601C276.563,61.535,277.518,62.178,278.449,63.062z"/>
		<path fill="#FFFFFF" d="M283.353,60.862h1.309v13.096h-1.309V60.862z"/>
		<path fill="#FFFFFF" d="M289.494,73.958V60.862h0.285l8.715,10.038V60.862h1.291v13.096h-0.294l-8.644-9.916v9.916H289.494z"/>
		<path fill="#FFFFFF" d="M304.804,60.862h7.505v1.282h-6.196v4.104h6.143v1.281h-6.143v5.146h6.143v1.282h-7.451V60.862z"/>
		<path fill="#FFFFFF" d="M323.265,60.862h1.309v11.832h5.038v1.264h-6.347V60.862z"/>
		<path fill="#FFFFFF" d="M333.321,60.862h1.309v13.096h-1.309V60.862z"/>
		<path fill="#FFFFFF" d="M339.489,60.862h2.582c1.038,0,1.837,0.124,2.395,0.37s0.999,0.624,1.322,1.135s0.485,1.077,0.485,1.7
			c0,0.582-0.142,1.111-0.426,1.589c-0.283,0.479-0.7,0.865-1.249,1.162c0.681,0.231,1.204,0.503,1.571,0.814
			c0.366,0.312,0.652,0.688,0.856,1.131s0.306,0.921,0.306,1.438c0,1.051-0.384,1.939-1.152,2.666
			c-0.769,0.728-1.8,1.091-3.094,1.091h-3.597V60.862z M340.771,62.145v4.193h0.749c0.91,0,1.579-0.085,2.008-0.254
			c0.428-0.169,0.767-0.437,1.017-0.802c0.25-0.364,0.375-0.77,0.375-1.215c0-0.6-0.21-1.069-0.629-1.411
			c-0.419-0.341-1.087-0.512-2.003-0.512H340.771z M340.771,67.655v5.021h1.623c0.957,0,1.658-0.093,2.104-0.28
			c0.446-0.187,0.804-0.479,1.074-0.877s0.406-0.828,0.406-1.291c0-0.581-0.19-1.089-0.57-1.521
			c-0.381-0.434-0.903-0.73-1.568-0.891c-0.446-0.106-1.223-0.16-2.329-0.16H340.771z"/>
		<path fill="#FFFFFF" d="M351.817,60.862h2.608c1.454,0,2.438,0.06,2.955,0.179c0.777,0.179,1.41,0.56,1.896,1.146
			c0.486,0.585,0.729,1.306,0.729,2.161c0,0.714-0.167,1.34-0.503,1.881c-0.335,0.541-0.814,0.949-1.438,1.226
			s-1.483,0.418-2.581,0.424l4.709,6.08h-1.619l-4.71-6.08h-0.739v6.08h-1.309V60.862z M353.126,62.145v4.451l2.256,0.018
			c0.874,0,1.521-0.083,1.939-0.249s0.746-0.432,0.98-0.797c0.235-0.364,0.353-0.772,0.353-1.224c0-0.439-0.119-0.839-0.356-1.197
			c-0.238-0.359-0.55-0.616-0.937-0.771s-1.028-0.231-1.926-0.231H353.126z"/>
		<path fill="#FFFFFF" d="M369.986,60.862l6.106,13.096h-1.413l-2.06-4.309h-5.642l-2.04,4.309h-1.46l6.187-13.096H369.986z
			 M369.82,63.645l-2.244,4.74h4.478L369.82,63.645z"/>
		<path fill="#FFFFFF" d="M380.017,60.862h2.608c1.454,0,2.438,0.06,2.955,0.179c0.777,0.179,1.41,0.56,1.896,1.146
			c0.486,0.585,0.729,1.306,0.729,2.161c0,0.714-0.167,1.34-0.503,1.881c-0.335,0.541-0.814,0.949-1.438,1.226
			s-1.483,0.418-2.581,0.424l4.709,6.08h-1.619l-4.71-6.08h-0.739v6.08h-1.309V60.862z M381.325,62.145v4.451l2.256,0.018
			c0.874,0,1.521-0.083,1.939-0.249s0.746-0.432,0.98-0.797c0.235-0.364,0.353-0.772,0.353-1.224c0-0.439-0.119-0.839-0.356-1.197
			c-0.238-0.359-0.55-0.616-0.937-0.771s-1.028-0.231-1.926-0.231H381.325z"/>
		<path fill="#FFFFFF" d="M391.801,60.862h1.506l3.351,5.401l3.299-5.401h1.513l-4.148,6.837v6.259h-1.291v-6.259L391.801,60.862z"
			/>
	</g>
</g>
<polygon fill="none" stroke="#FFFFFF" stroke-width="4" stroke-miterlimit="10" points="103.088,33.683 103.088,33.683 
	103.088,33.683 "/>
<g>
	<path fill="#0664A8" d="M13.543,28.791c10.422-13.303,30.352-13.869,44.994-8.13c7.021,1.816,10.947,5.806,20.154,6.474
		c7.519,0.545,12.931-4.87,9.955-9.338c-9.261-13.904-34.021,11.262-37.462,15.51c-6.358,7.887-9.467,18.986-21.334,20.536
		C17.056,55.514,6.442,41.17,18.595,31.985c16.735-12.608,33.001,5.292,51.931,10.523c10.511,2.903,27.66,3.712,32.292-11.092
		c11.733,14.346-8.135,34.643-29.003,27.11c-13.773-4.975-33.137-23.473-45.238-21.991c-5.18,0.636-6.658,9.087-0.937,9.206
		c5.479,1.682,11.943-6.838,15.73-9.943c9.093-7.59,14.618-18.118,24.95-24.695c10.731-6.828,31.151-5.039,30.852,8.341
		C98.744,38.477,79.064,37.729,67.349,32.62C49.77,24.954,30.943,14.32,13.543,28.791C14.014,28.193,13.543,28.791,13.543,28.791z"
		/>
	<path fill="none" d="M18.595,31.985c-1.777,0.521-2.899,1.835-3.419,3.489C16.013,34.262,17.139,33.086,18.595,31.985z"/>
	<path fill="none" d="M67.349,32.62c-3.581-1.562-7.213-3.246-10.874-4.817c-0.981,0.931-1.867,1.808-2.631,2.59
		c17.033,5.991,41.377,9.836,43.522-2.777c0-0.001,0-0.001,0-0.001C92.184,38.087,77.041,36.847,67.349,32.62z"/>
	<path fill="none" d="M13.594,28.728c-0.009,0.012-0.02,0.023-0.029,0.038c-0.004,0.003-0.005,0.008-0.01,0.012
		c-0.004,0.006-0.007,0.008-0.012,0.014c0.018-0.022,0.036-0.043,0.054-0.065C13.597,28.726,13.596,28.727,13.594,28.728z"/>
	<path fill="none" d="M39.864,39.116c-0.021-0.008-0.042-0.02-0.063-0.029c0.02,0.014,0.038,0.025,0.058,0.036
		C39.86,39.122,39.861,39.119,39.864,39.116z"/>
	<path fill="none" d="M39.801,39.087c-4.105-1.877-7.934-2.952-11.225-2.551c-5.18,0.636-6.658,9.087-0.937,9.206
		c0.603,0.188,1.217,0.247,1.84,0.206c2.596-1.035,4.919-2.312,7.124-3.775c1.135-0.979,2.231-2.041,3.255-3.05
		C39.839,39.112,39.82,39.101,39.801,39.087z"/>
	<path fill="none" d="M36.604,42.173c-2.205,1.464-4.528,2.74-7.124,3.775C31.842,45.791,34.306,44.152,36.604,42.173z"/>
	<path fill="none" d="M84.95,14.487c-3.649-1.725-8.294-0.611-12.975,1.778C76.04,14.166,80.719,13.716,84.95,14.487z"/>
	<path fill="none" d="M71.271,16.634c0.233-0.122,0.467-0.245,0.704-0.367C71.74,16.385,71.505,16.509,71.271,16.634z"/>
	<path fill="none" d="M45.008,42.497c8.642,5.798,17.505,12.175,24.979,14.39c-7.616-3.699-16.427-10.234-24.638-14.918
		C45.236,42.146,45.122,42.321,45.008,42.497z"/>
	<path fill="none" d="M78.691,27.135c7.519,0.545,12.931-4.87,9.955-9.338c-1.051-1.576-2.301-2.65-3.696-3.31
		c-4.231-0.771-8.91-0.321-12.975,1.778c0,0-0.001,0-0.001,0.001c-0.237,0.122-0.471,0.245-0.704,0.367
		c-2.844,1.525-5.684,3.492-8.304,5.548C67.629,24.129,71.591,26.618,78.691,27.135z"/>
	<path fill="#0664A8" d="M48.358,32.654c0.798,0.388,1.6,0.783,2.403,1.188c0.14-0.18,0.279-0.358,0.423-0.535
		c0.489-0.606,1.412-1.634,2.659-2.914c-0.672-0.236-1.331-0.476-1.978-0.717C50.645,30.688,49.482,31.685,48.358,32.654z"/>
	<path fill="#0664A8" d="M40.432,39.381c1.604,0.761,3.249,1.636,4.918,2.588c1.759-2.731,3.436-5.576,5.412-8.127
		c-0.804-0.404-1.605-0.8-2.403-1.188C45.564,35.073,43.015,37.346,40.432,39.381z"/>
	<path fill="#0664A8" d="M36.604,42.173c1.279-0.85,2.521-1.764,3.753-2.732c-0.167-0.106-0.333-0.212-0.498-0.317
		C38.835,40.132,37.738,41.193,36.604,42.173z"/>
	<path fill="#0664A8" d="M39.858,39.123c0.165,0.105,0.331,0.211,0.498,0.317c0.025-0.021,0.05-0.039,0.075-0.06
		c-0.189-0.09-0.378-0.177-0.567-0.265C39.861,39.119,39.86,39.122,39.858,39.123z"/>
	<path fill="#0664A8" d="M13.555,28.777c0.005-0.004,0.006-0.009,0.01-0.012C13.562,28.769,13.56,28.771,13.555,28.777z"/>
	<path fill="#0664A8" d="M13.647,28.658c0.018-0.021,0.033-0.042,0.049-0.063C13.683,28.613,13.667,28.634,13.647,28.658z"/>
	<path fill="#0664A8" d="M13.543,28.791c0.005-0.006,0.008-0.008,0.012-0.014C13.548,28.785,13.543,28.791,13.543,28.791z"/>
	<path fill="#0664A8" d="M13.696,28.596c0.025-0.032,0.04-0.052,0.049-0.061C13.735,28.547,13.719,28.568,13.696,28.596z"/>
	<path fill="#0664A8" d="M13.543,28.791c0.093-0.075,0.186-0.147,0.278-0.225c-0.074,0.054-0.149,0.105-0.225,0.159
		C13.579,28.748,13.561,28.769,13.543,28.791z"/>
	<path fill="#0664A8" d="M13.594,28.728c-0.011,0.013-0.021,0.027-0.029,0.038C13.574,28.751,13.585,28.739,13.594,28.728
		L13.594,28.728z"/>
	<path fill="#0664A8" d="M13.745,28.535C13.752,28.526,13.753,28.524,13.745,28.535L13.745,28.535z"/>
	<path fill="#0664A8" d="M13.647,28.658c-0.019,0.025-0.037,0.048-0.054,0.069l0,0C13.614,28.701,13.632,28.678,13.647,28.658z"/>
	<path fill="#0664A8" d="M39.801,39.087c0.021,0.01,0.043,0.021,0.063,0.029c1.311-1.29,2.502-2.494,3.506-3.317
		c1.385-1.155,2.686-2.381,3.934-3.647c-9.803-4.634-19.179-7.345-28.709-0.166C24.27,30.32,31.791,34.02,39.801,39.087z"/>
	<polygon fill="#0664A8" points="71.975,16.266 71.975,16.267 71.975,16.266 	"/>
	<path fill="#0664A8" d="M36.604,42.173c-2.298,1.979-4.762,3.618-7.124,3.775c-0.653,0.262-1.326,0.508-2.019,0.737
		c-9.298,3.087-13.974-5.845-12.285-11.211c-6.154,8.903,3.412,19.838,14.675,18.368c7.585-0.991,11.593-5.884,15.157-11.346
		c-1.561-1.046-3.115-2.075-4.651-3.057C39.124,40.409,37.883,41.323,36.604,42.173z"/>
	<linearGradient id="SVGID_1_" gradientUnits="userSpaceOnUse" x1="18.8867" y1="46.5723" x2="27.3283" y2="37.3633">
		<stop  offset="0" style="stop-color:#02364F"/>
		<stop  offset="1" style="stop-color:#0664A8"/>
	</linearGradient>
	<path fill="url(#SVGID_1_)" d="M27.461,46.686c0.692-0.229,1.365-0.476,2.019-0.737c-0.623,0.041-1.237-0.019-1.84-0.206
		c-5.722-0.119-4.243-8.57,0.937-9.206c3.291-0.401,7.119,0.674,11.225,2.551c-8.01-5.067-15.531-8.767-21.206-7.102
		c-1.456,1.101-2.582,2.276-3.419,3.489C13.487,40.841,18.163,49.772,27.461,46.686z"/>
	<path fill="#0664A8" d="M51.866,29.676c-0.562-0.21-1.114-0.423-1.655-0.636c-0.944,1.058-1.908,2.097-2.907,3.111
		c0.352,0.166,0.702,0.334,1.055,0.503C49.482,31.685,50.645,30.688,51.866,29.676z"/>
	<path fill="#0664A8" d="M43.37,35.799c-1.004,0.823-2.195,2.027-3.506,3.317c0.189,0.088,0.378,0.175,0.567,0.265
		c2.583-2.035,5.133-4.308,7.927-6.727c-0.353-0.169-0.703-0.337-1.055-0.503C46.056,33.418,44.755,34.644,43.37,35.799z"/>
	<linearGradient id="SVGID_2_" gradientUnits="userSpaceOnUse" x1="69.9873" y1="45.7852" x2="106.313" y2="45.7852">
		<stop  offset="0" style="stop-color:#02364F"/>
		<stop  offset="1" style="stop-color:#0664A8"/>
	</linearGradient>
	<path fill="url(#SVGID_2_)" d="M102.817,31.417c-4.449,17.729-19.28,29.483-32.83,25.47l0,0c1.314,0.638,2.595,1.193,3.827,1.641
		C94.683,66.06,114.551,45.763,102.817,31.417z"/>
	<path fill="#0664A8" d="M40.432,39.381c-0.025,0.021-0.05,0.039-0.075,0.06c1.536,0.981,3.091,2.011,4.651,3.057
		c0.114-0.176,0.229-0.352,0.342-0.528C43.681,41.017,42.036,40.142,40.432,39.381z"/>
	<path fill="#0664A8" d="M102.817,31.417c-4.632,14.804-21.781,13.995-32.292,11.092c-6.892-1.904-13.428-5.488-19.764-8.667
		c-1.977,2.551-3.653,5.396-5.412,8.127c8.211,4.684,17.021,11.219,24.638,14.918l0,0C83.537,60.9,98.368,49.146,102.817,31.417z"/>
	<path fill="#0664A8" d="M54.975,27.167c-0.768-0.319-1.535-0.633-2.305-0.938c-0.811,0.943-1.627,1.883-2.459,2.812
		c0.541,0.213,1.094,0.426,1.655,0.636C52.86,28.851,53.893,28.013,54.975,27.167z"/>
	<path fill="#0664A8" d="M56.475,27.803c-0.499-0.213-0.999-0.424-1.5-0.636c-1.082,0.846-2.114,1.684-3.108,2.509
		c0.646,0.241,1.306,0.48,1.978,0.717C54.607,29.61,55.493,28.733,56.475,27.803z"/>
	<path fill="#0664A8" d="M62.967,22.182c-0.222-0.092-0.445-0.184-0.671-0.273c-2.698,1.771-5.111,3.533-7.321,5.259
		c0.501,0.212,1.001,0.423,1.5,0.636C58.342,26.034,60.563,24.072,62.967,22.182z"/>
	<path fill="#0664A8" d="M52.67,26.229c1.688-1.965,3.358-3.941,5.101-5.861c-14.54-5.413-33.918-4.649-44.174,8.358
		c0.075-0.054,0.15-0.105,0.225-0.159C26.371,18.33,39.654,21.05,52.67,26.229z"/>
	<path fill="#0664A8" d="M71.271,16.634c-3.329,1.749-6.294,3.516-8.975,5.274c0.226,0.09,0.449,0.182,0.671,0.273
		C65.587,20.126,68.427,18.159,71.271,16.634z"/>
	<path fill="#0664A8" d="M54.975,27.167c2.21-1.726,4.623-3.488,7.321-5.259c-1.18-0.469-2.412-0.898-3.759-1.247
		c-0.254-0.101-0.511-0.196-0.767-0.294c-1.742,1.92-3.413,3.896-5.101,5.861C53.439,26.534,54.207,26.848,54.975,27.167z"/>
	<linearGradient id="SVGID_3_" gradientUnits="userSpaceOnUse" x1="93.6816" y1="11.458" x2="83.3222" y2="21.8175">
		<stop  offset="0" style="stop-color:#02364F"/>
		<stop  offset="1" style="stop-color:#0664A8"/>
	</linearGradient>
	<path fill="url(#SVGID_3_)" d="M84.95,14.487c1.396,0.659,2.646,1.733,3.696,3.31c2.976,4.468-2.437,9.883-9.955,9.338
		c-7.101-0.517-11.063-3.006-15.725-4.953c-2.404,1.891-4.625,3.853-6.492,5.621c3.661,1.571,7.293,3.256,10.874,4.817
		c9.692,4.227,24.835,5.467,30.018-5.006C98.491,21.006,92.414,15.848,84.95,14.487z"/>
	<path fill="#0664A8" d="M62.296,21.908c2.681-1.759,5.646-3.525,8.975-5.274c0.234-0.125,0.47-0.249,0.704-0.367
		c0-0.001,0-0.001,0-0.001h0.001c4.681-2.39,9.325-3.503,12.975-1.778c7.464,1.36,13.541,6.519,12.416,13.127
		c1.083-2.187,1.73-4.883,1.806-8.17c0.3-13.38-20.12-15.169-30.852-8.341c-4.1,2.61-7.441,5.842-10.55,9.264
		c0.256,0.098,0.513,0.193,0.767,0.294C59.884,21.01,61.116,21.439,62.296,21.908z"/>
</g>
<g opacity="0.6">
	<g>
		<path fill="#A09F9F" d="M430.885,27.024v4.638h-0.722v-4.638h-1.682v-0.65h4.161v0.65H430.885z"/>
		<path fill="#A09F9F" d="M437.969,31.662l-0.628-3.396l-1.155,3.469h-0.181l-1.188-3.469l-0.613,3.396h-0.686l0.989-5.288h0.328
			l1.26,3.858l1.162-3.858h0.325l1.071,5.288H437.969z"/>
	</g>
</g>
</svg>
