<?xml version="1.0" encoding="utf-8"?>
<!--

 Licensed to the Apache Software Foundation (ASF) under one
 or more contributor license agreements.  See the NOTICE file
 distributed with this work for additional information
 regarding copyright ownership.  The ASF licenses this file
 to you under the Apache License, Version 2.0 (the
 "License"); you may not use this file except in compliance
 with the License.  You may obtain a copy of the License at

   http://www.apache.org/licenses/LICENSE-2.0

 Unless required by applicable law or agreed to in writing,
 software distributed under the License is distributed on an
 "AS IS" BASIS, WITHOUT WARRANTIES OR CONDITIONS OF ANY
 KIND, either express or implied.  See the License for the
 specific language governing permissions and limitations
 under the License.

-->

<!-- Generator: Adobe Illustrator 15.0.0, SVG Export Plug-In . SVG Version: 6.00 Build 0)  -->
<!DOCTYPE svg PUBLIC "-//W3C//DTD SVG 1.1//EN" "http://www.w3.org/Graphics/SVG/1.1/DTD/svg11.dtd">
<svg version="1.1" id="Layer_1" xmlns="http://www.w3.org/2000/svg" xmlns:xlink="http://www.w3.org/1999/xlink" x="0px" y="0px"
	 width="467px" height="108px" viewBox="0 0 467 108" enable-background="new 0 0 467 108" xml:space="preserve">
<g>
	<polygon stroke="#D8D5D4" stroke-miterlimit="10" points="171.895,46.437 172.424,46.12 171.895,45.836 	"/>
	<g>
		<path fill="#0664A8" d="M334.528,74.271c-0.091-0.627-0.168-1.244-0.235-1.848c-0.067-0.605-0.101-1.221-0.101-1.85
			c0-0.625,0.033-1.264,0.101-1.914c0.067-0.648,0.145-1.287,0.235-1.916c0.627-0.088,1.243-0.156,1.848-0.201
			c0.604-0.043,1.22-0.066,1.848-0.066c0.627,0,1.254,0.023,1.882,0.066c0.627,0.045,1.254,0.113,1.882,0.201
			c0.089,0.629,0.168,1.256,0.235,1.883c0.066,0.627,0.101,1.254,0.101,1.881c0,0.629-0.034,1.254-0.101,1.881
			c-0.067,0.629-0.146,1.256-0.235,1.883c-0.628,0.088-1.243,0.156-1.849,0.201c-0.604,0.045-1.221,0.066-1.848,0.066
			c-0.628,0-1.255-0.021-1.882-0.066C335.781,74.428,335.155,74.359,334.528,74.271z"/>
		<path fill="#0664A8" d="M351.73,39.798c0.492-0.089,0.975-0.156,1.444-0.202c0.471-0.044,0.951-0.066,1.445-0.066
			c0.492,0,0.951,0.022,1.377,0.066c0.426,0.046,0.885,0.113,1.378,0.202c0.135,0.672,0.269,1.579,0.403,2.722
			s0.201,2.095,0.201,2.855c0.447-0.761,1.019-1.522,1.714-2.284c0.694-0.762,1.489-1.445,2.386-2.05
			c0.896-0.604,1.926-1.098,3.091-1.479c1.164-0.38,2.441-0.571,3.83-0.571c3.942,0,6.854,1.132,8.736,3.394
			c1.881,2.263,2.822,5.611,2.822,10.046v21.84c-0.493,0.088-1.054,0.156-1.68,0.201c-0.628,0.045-1.188,0.066-1.681,0.066
			s-1.041-0.021-1.646-0.066c-0.604-0.045-1.153-0.113-1.646-0.201V54.246c0-3.18-0.494-5.521-1.479-7.022
			c-0.986-1.501-2.554-2.252-4.704-2.252c-1.255,0-2.442,0.225-3.562,0.672c-1.12,0.449-2.106,1.143-2.957,2.084
			c-0.852,0.94-1.535,2.161-2.049,3.663c-0.516,1.5-0.773,3.303-0.773,5.408v17.473c-0.493,0.088-1.041,0.156-1.646,0.201
			c-0.604,0.045-1.153,0.066-1.646,0.066s-1.053-0.021-1.68-0.066c-0.628-0.045-1.188-0.113-1.68-0.201V39.798z"/>
		<path fill="#0664A8" d="M395.543,58.682c0.089,3.762,1.063,6.518,2.923,8.266c1.858,1.746,4.604,2.619,8.232,2.619
			c3.18,0,6.204-0.559,9.071-1.68c0.358,0.672,0.649,1.49,0.874,2.453c0.224,0.965,0.357,1.916,0.402,2.855
			c-1.478,0.629-3.103,1.098-4.871,1.412c-1.771,0.313-3.729,0.471-5.88,0.471c-3.137,0-5.824-0.438-8.064-1.311
			c-2.24-0.875-4.088-2.105-5.544-3.697c-1.456-1.59-2.52-3.471-3.191-5.645c-0.672-2.172-1.008-4.557-1.008-7.156
			c0-2.553,0.324-4.939,0.975-7.157c0.648-2.217,1.646-4.143,2.99-5.778c1.344-1.635,3.034-2.934,5.073-3.897
			c2.038-0.963,4.445-1.445,7.224-1.445c2.374,0,4.457,0.403,6.249,1.21s3.293,1.915,4.503,3.326
			c1.209,1.411,2.127,3.091,2.755,5.04c0.627,1.948,0.94,4.065,0.94,6.35c0,0.627-0.022,1.289-0.066,1.982
			c-0.046,0.695-0.091,1.289-0.135,1.781H395.543z M412.611,53.709c0-1.254-0.168-2.453-0.504-3.596
			c-0.336-1.142-0.83-2.139-1.479-2.99c-0.65-0.851-1.479-1.534-2.486-2.049s-2.207-0.773-3.595-0.773
			c-2.733,0-4.828,0.83-6.283,2.486c-1.457,1.658-2.342,3.965-2.654,6.922H412.611z"/>
		<path fill="#0664A8" d="M429.209,45.107h-5.241l-0.269-0.94l11.558-12.902h0.538v8.534h8.735c0.179,0.762,0.269,1.612,0.269,2.554
			c0,0.493-0.022,0.964-0.066,1.411c-0.046,0.448-0.112,0.896-0.202,1.344h-8.735v15.725c0,1.881,0.077,3.383,0.235,4.502
			c0.156,1.119,0.425,1.982,0.806,2.586c0.381,0.605,0.896,1.01,1.546,1.211c0.648,0.201,1.467,0.303,2.453,0.303
			c0.761,0,1.478-0.057,2.15-0.168c0.672-0.111,1.276-0.236,1.813-0.371c0.313,0.896,0.505,1.814,0.571,2.756
			c0.067,0.941,0.102,1.77,0.102,2.486c-0.897,0.223-1.838,0.391-2.822,0.504c-0.986,0.111-2.039,0.168-3.159,0.168
			c-3.226,0-5.745-0.783-7.56-2.352s-2.722-4.166-2.722-7.795V45.107z"/>
	</g>
	<g>
		<path d="M17.147,8.829c1.643-0.242,3.133-0.425,4.472-0.548c1.338-0.121,2.524-0.183,3.56-0.183c1.095,0,2.328,0.062,3.697,0.183
			c1.369,0.123,2.844,0.306,4.427,0.548v51.113h21.084c0.304,1.521,0.502,2.846,0.593,3.971c0.091,1.127,0.137,2.145,0.137,3.057
			c0,1.035-0.045,2.115-0.137,3.24c-0.091,1.127-0.29,2.48-0.593,4.063H17.147V8.829z"/>
		<path d="M84.873,75.275c-4.929,0-9.022-0.67-12.276-2.008c-3.256-1.338-5.827-3.271-7.712-5.797
			c-1.887-2.523-3.21-5.582-3.971-9.172c-0.761-3.59-1.141-7.636-1.141-12.14V8.829c1.764-0.242,3.286-0.411,4.563-0.502
			c1.278-0.092,2.495-0.137,3.651-0.137c1.034,0,2.175,0.045,3.423,0.137c1.247,0.091,2.752,0.26,4.518,0.502v35.414
			c0,3.043,0.121,5.629,0.365,7.757c0.242,2.131,0.685,3.865,1.323,5.203c0.639,1.34,1.536,2.297,2.692,2.875
			c1.155,0.578,2.677,0.867,4.564,0.867c1.885,0,3.422-0.289,4.609-0.867s2.1-1.535,2.738-2.875
			c0.639-1.338,1.064-3.072,1.278-5.203c0.212-2.128,0.319-4.714,0.319-7.757V8.829c1.826-0.242,3.362-0.411,4.609-0.502
			c1.247-0.092,2.388-0.137,3.423-0.137c1.095,0,2.282,0.045,3.56,0.137c1.278,0.091,2.798,0.26,4.563,0.502v37.33
			c0,4.504-0.38,8.55-1.141,12.14c-0.762,3.59-2.085,6.648-3.97,9.172c-1.887,2.525-4.458,4.459-7.713,5.797
			C93.893,74.605,89.801,75.275,84.873,75.275z"/>
		<path d="M135.893,41.595c0,12.901,5.415,19.35,16.247,19.35c1.946,0,3.787-0.184,5.521-0.547c1.734-0.365,3.848-0.973,6.344-1.826
			c2.008,4.381,3.346,8.885,4.016,13.508c-1.766,0.67-3.408,1.219-4.929,1.643c-1.521,0.428-2.981,0.746-4.381,0.959
			c-1.4,0.213-2.784,0.365-4.153,0.457c-1.369,0.09-2.783,0.137-4.244,0.137c-5.172,0-9.72-0.838-13.645-2.51
			c-3.925-1.674-7.21-4-9.857-6.982c-2.647-2.98-4.641-6.541-5.979-10.68c-1.339-4.137-2.008-8.639-2.008-13.508
			c0-4.867,0.699-9.385,2.099-13.554c1.399-4.167,3.423-7.772,6.07-10.816c2.647-3.041,5.917-5.414,9.812-7.119
			c3.894-1.702,8.306-2.556,13.235-2.556c2.921,0,5.688,0.214,8.306,0.64c2.615,0.426,5.536,1.277,8.763,2.556
			c-0.123,2.495-0.579,4.914-1.369,7.256c-0.792,2.343-1.613,4.396-2.465,6.161c-1.218-0.425-2.327-0.79-3.331-1.096
			c-1.004-0.304-1.963-0.548-2.875-0.73c-0.913-0.182-1.826-0.319-2.738-0.41c-0.913-0.092-1.887-0.137-2.921-0.137
			c-4.929,0-8.748,1.658-11.455,4.974C137.246,30.081,135.893,35.024,135.893,41.595z"/>
		<path d="M210.735,40.043c0,2.131-0.273,4.504-0.821,7.119h-17.615v12.96h22.909c0.548,2.557,0.821,4.869,0.821,6.938
			c0,2.252-0.273,4.654-0.821,7.211h-39.064V8.646h38.517c0.243,1.339,0.425,2.587,0.548,3.742c0.121,1.156,0.183,2.252,0.183,3.286
			c0,2.008-0.244,4.412-0.73,7.21h-22.361v10.04h17.615C210.462,35.603,210.735,37.976,210.735,40.043z"/>
		<path d="M224.243,8.829c1.338-0.242,2.556-0.425,3.65-0.548c1.096-0.121,2.159-0.183,3.195-0.183c1.095,0,2.235,0.077,3.422,0.229
			c1.187,0.152,2.205,0.319,3.058,0.502l21.176,35.778V8.829c1.581-0.242,3.012-0.425,4.29-0.548
			c1.277-0.121,2.433-0.183,3.468-0.183c1.034,0,2.13,0.062,3.286,0.183c1.155,0.123,2.373,0.306,3.65,0.548l-0.091,65.169
			c-0.609,0.182-1.492,0.363-2.646,0.547c-1.157,0.182-2.405,0.273-3.742,0.273c-1.522,0-2.892-0.107-4.107-0.318
			c-1.218-0.215-2.1-0.381-2.647-0.502l-21.267-35.597v35.597c-2.678,0.547-5.111,0.82-7.302,0.82s-4.654-0.273-7.393-0.82V8.829z"
			/>
		<path d="M318.983,40.043c0,2.131-0.273,4.504-0.821,7.119h-17.615v12.96h22.909c0.548,2.557,0.821,4.869,0.821,6.938
			c0,2.252-0.273,4.654-0.821,7.211h-39.064V8.646h38.517c0.243,1.339,0.425,2.587,0.548,3.742c0.121,1.156,0.183,2.252,0.183,3.286
			c0,2.008-0.244,4.412-0.73,7.21h-22.361v10.04h17.615C318.71,35.603,318.983,37.976,318.983,40.043z"/>
	</g>
	<g opacity="0.6">
		<g>
			<path d="M44.364,101.068l1.615-0.971c1.138,2.094,2.451,3.141,3.942,3.141c0.638,0,1.236-0.148,1.797-0.445
				c0.56-0.297,0.986-0.695,1.279-1.195s0.439-1.029,0.439-1.59c0-0.637-0.215-1.262-0.646-1.875
				c-0.595-0.844-1.68-1.859-3.257-3.049c-1.585-1.197-2.572-2.064-2.959-2.598c-0.672-0.896-1.008-1.865-1.008-2.908
				c0-0.828,0.198-1.582,0.595-2.262c0.396-0.682,0.954-1.217,1.674-1.609c0.719-0.393,1.501-0.588,2.346-0.588
				c0.896,0,1.734,0.223,2.514,0.666s1.604,1.26,2.475,2.449l-1.551,1.176c-0.715-0.947-1.325-1.572-1.829-1.875
				c-0.504-0.301-1.053-0.451-1.648-0.451c-0.767,0-1.394,0.232-1.88,0.697s-0.73,1.039-0.73,1.719c0,0.414,0.086,0.814,0.258,1.203
				c0.172,0.387,0.487,0.809,0.943,1.266c0.25,0.242,1.068,0.875,2.456,1.9c1.646,1.215,2.774,2.297,3.386,3.244
				s0.918,1.898,0.918,2.855c0,1.379-0.523,2.576-1.57,3.594c-1.047,1.016-2.32,1.525-3.819,1.525c-1.155,0-2.202-0.309-3.141-0.926
				C46.022,103.547,45.157,102.516,44.364,101.068z"/>
			<path d="M62.171,85.598h10.896v1.861h-8.996v5.957h8.918v1.861h-8.918v7.471h8.918v1.861H62.171V85.598z"/>
			<path d="M86.764,85.598l8.866,19.012h-2.052l-2.99-6.256h-8.19l-2.961,6.256h-2.12l8.982-19.012H86.764z M86.524,89.637
				l-3.258,6.881h6.5L86.524,89.637z"/>
			<path d="M101.327,85.598h3.787c2.111,0,3.542,0.086,4.291,0.258c1.128,0.26,2.046,0.814,2.753,1.664s1.06,1.895,1.06,3.137
				c0,1.037-0.244,1.947-0.73,2.73c-0.487,0.785-1.183,1.379-2.087,1.779c-0.905,0.402-2.154,0.607-3.748,0.615l6.837,8.828h-2.351
				l-6.837-8.828h-1.074v8.828h-1.9V85.598z M103.227,87.459v6.461l3.275,0.027c1.269,0,2.207-0.121,2.815-0.363
				c0.608-0.24,1.083-0.627,1.424-1.156s0.511-1.121,0.511-1.777c0-0.637-0.173-1.217-0.518-1.738
				c-0.346-0.521-0.798-0.895-1.359-1.117c-0.561-0.225-1.493-0.336-2.796-0.336H103.227z"/>
			<path d="M137.642,89.125l-1.5,1.15c-0.827-1.076-1.82-1.893-2.979-2.449c-1.159-0.555-2.432-0.834-3.819-0.834
				c-1.517,0-2.921,0.365-4.213,1.094c-1.292,0.727-2.294,1.705-3.005,2.934c-0.71,1.227-1.066,2.607-1.066,4.143
				c0,2.316,0.795,4.252,2.384,5.803c1.59,1.551,3.595,2.326,6.017,2.326c2.662,0,4.89-1.043,6.682-3.129l1.5,1.139
				c-0.948,1.205-2.131,2.139-3.548,2.797c-1.417,0.66-3.001,0.99-4.75,0.99c-3.326,0-5.949-1.107-7.871-3.322
				c-1.611-1.869-2.417-4.127-2.417-6.771c0-2.783,0.976-5.125,2.927-7.025s4.396-2.85,7.335-2.85c1.774,0,3.377,0.352,4.808,1.053
				C135.557,86.875,136.729,87.859,137.642,89.125z"/>
			<path d="M144.076,85.598h1.9v7.975h9.681v-7.975h1.899v19.012h-1.899v-9.178h-9.681v9.178h-1.9V85.598z"/>
			<path d="M174.817,85.598h10.896v1.861h-8.995v5.957h8.918v1.861h-8.918v7.471h8.918v1.861h-10.818V85.598z"/>
			<path d="M191.655,104.609V85.598h0.414l12.652,14.572V85.598h1.874v19.012h-0.426l-12.55-14.396v14.396H191.655z"/>
			<path d="M232.209,88.789l-1.474,1.396c-1.06-1.043-2.221-1.834-3.483-2.371c-1.262-0.539-2.492-0.809-3.689-0.809
				c-1.491,0-2.91,0.367-4.259,1.098c-1.349,0.734-2.394,1.727-3.134,2.98c-0.741,1.254-1.111,2.578-1.111,3.975
				c0,1.43,0.383,2.789,1.149,4.076c0.768,1.289,1.827,2.301,3.18,3.037c1.353,0.738,2.835,1.105,4.446,1.105
				c1.956,0,3.61-0.551,4.963-1.654c1.353-1.102,2.153-2.533,2.403-4.291h-6.061v-1.834h8.193c-0.018,2.938-0.89,5.27-2.617,6.998
				c-1.728,1.727-4.039,2.592-6.934,2.592c-3.516,0-6.299-1.199-8.35-3.594c-1.576-1.844-2.365-3.977-2.365-6.398
				c0-1.801,0.453-3.477,1.357-5.027s2.146-2.764,3.723-3.637c1.576-0.875,3.36-1.313,5.351-1.313c1.61,0,3.127,0.291,4.549,0.873
				C229.469,86.572,230.856,87.506,232.209,88.789z"/>
			<path d="M239.328,85.598h1.9v19.012h-1.9V85.598z"/>
			<path d="M248.243,104.609V85.598h0.414l12.652,14.572V85.598h1.874v19.012h-0.426l-12.55-14.396v14.396H248.243z"/>
			<path d="M270.471,85.598h10.896v1.861h-8.995v5.957h8.918v1.861h-8.918v7.471h8.918v1.861h-10.818V85.598z"/>
			<path d="M297.271,85.598h1.899v17.176h7.315v1.836h-9.215V85.598z"/>
			<path d="M311.872,85.598h1.9v19.012h-1.9V85.598z"/>
			<path d="M320.826,85.598h3.748c1.508,0,2.667,0.178,3.477,0.535s1.449,0.908,1.919,1.648c0.47,0.742,0.705,1.564,0.705,2.469
				c0,0.844-0.206,1.613-0.618,2.307c-0.411,0.693-1.016,1.256-1.813,1.688c0.987,0.336,1.747,0.73,2.28,1.182
				c0.532,0.453,0.947,1,1.243,1.643c0.297,0.641,0.445,1.336,0.445,2.086c0,1.525-0.559,2.816-1.674,3.871
				c-1.116,1.057-2.613,1.584-4.491,1.584h-5.222V85.598z M322.688,87.459v6.086h1.088c1.32,0,2.292-0.121,2.914-0.367
				c0.621-0.246,1.114-0.633,1.477-1.164c0.362-0.529,0.544-1.117,0.544-1.764c0-0.871-0.305-1.553-0.913-2.049
				s-1.578-0.742-2.908-0.742H322.688z M322.688,95.459v7.289h2.356c1.389,0,2.407-0.137,3.055-0.408s1.167-0.695,1.561-1.271
				c0.393-0.578,0.589-1.203,0.589-1.875c0-0.844-0.276-1.58-0.828-2.209c-0.553-0.629-1.312-1.061-2.277-1.293
				c-0.647-0.156-1.774-0.232-3.381-0.232H322.688z"/>
			<path d="M338.724,85.598h3.787c2.11,0,3.541,0.086,4.29,0.258c1.129,0.26,2.047,0.814,2.753,1.664
				c0.707,0.85,1.061,1.895,1.061,3.137c0,1.037-0.244,1.947-0.73,2.73c-0.487,0.785-1.183,1.379-2.087,1.779
				c-0.905,0.402-2.154,0.607-3.749,0.615l6.838,8.828h-2.351l-6.838-8.828h-1.074v8.828h-1.899V85.598z M340.623,87.459v6.461
				l3.275,0.027c1.269,0,2.207-0.121,2.815-0.363c0.608-0.24,1.083-0.627,1.424-1.156s0.512-1.121,0.512-1.777
				c0-0.637-0.173-1.217-0.518-1.738c-0.346-0.521-0.799-0.895-1.359-1.117c-0.562-0.225-1.493-0.336-2.796-0.336H340.623z"/>
			<path d="M365.1,85.598l8.866,19.012h-2.053l-2.989-6.256h-8.19l-2.962,6.256h-2.12l8.982-19.012H365.1z M364.859,89.637
				l-3.258,6.881h6.5L364.859,89.637z"/>
			<path d="M379.663,85.598h3.787c2.11,0,3.541,0.086,4.29,0.258c1.129,0.26,2.047,0.814,2.753,1.664
				c0.707,0.85,1.061,1.895,1.061,3.137c0,1.037-0.244,1.947-0.73,2.73c-0.487,0.785-1.183,1.379-2.087,1.779
				c-0.905,0.402-2.154,0.607-3.749,0.615l6.838,8.828h-2.351l-6.838-8.828h-1.074v8.828h-1.899V85.598z M381.563,87.459v6.461
				l3.275,0.027c1.269,0,2.207-0.121,2.815-0.363c0.608-0.24,1.083-0.627,1.424-1.156s0.512-1.121,0.512-1.777
				c0-0.637-0.173-1.217-0.518-1.738c-0.346-0.521-0.799-0.895-1.359-1.117c-0.562-0.225-1.493-0.336-2.796-0.336H381.563z"/>
			<path d="M396.772,85.598h2.186l4.865,7.84l4.788-7.84h2.196l-6.022,9.926v9.086h-1.874v-9.086L396.772,85.598z"/>
		</g>
	</g>
	<g>
		<path fill="#454545" d="M446.784,30.38v4.638h-0.722V30.38h-1.682v-0.65h4.161v0.65H446.784z"/>
		<path fill="#454545" d="M453.868,35.018l-0.628-3.396l-1.155,3.469h-0.181l-1.188-3.469l-0.613,3.396h-0.686l0.989-5.288h0.328
			l1.26,3.858l1.162-3.858h0.325l1.071,5.288H453.868z"/>
	</g>
</g>
</svg>
